<?xml version="1.0" encoding="UTF-8" standalone="no"?>
<!-- Created with Inkscape (http://www.inkscape.org/) -->

<svg
   xmlns:dc="http://purl.org/dc/elements/1.1/"
   xmlns:cc="http://creativecommons.org/ns#"
   xmlns:rdf="http://www.w3.org/1999/02/22-rdf-syntax-ns#"
   xmlns:svg="http://www.w3.org/2000/svg"
   xmlns="http://www.w3.org/2000/svg"
   xmlns:xlink="http://www.w3.org/1999/xlink"
   xmlns:sodipodi="http://sodipodi.sourceforge.net/DTD/sodipodi-0.dtd"
   xmlns:inkscape="http://www.inkscape.org/namespaces/inkscape"
   width="24"
   height="24"
   id="svg2"
   sodipodi:version="0.32"
   inkscape:version="0.47 r22583"
   version="1.0"
   sodipodi:docname="stock_connect.svg"
   inkscape:output_extension="org.inkscape.output.svg.inkscape"
   inkscape:export-filename="/home/matt/.icons/Sirocco/scalable/mimetypes/text-plain.png"
   inkscape:export-xdpi="90"
   inkscape:export-ydpi="90"
   sodipodi:modified="true"
   style="display:inline">
  <sodipodi:namedview
     id="base"
     pagecolor="#ffffff"
     bordercolor="#666666"
     borderopacity="1.0"
     inkscape:pageopacity="0.0"
     inkscape:pageshadow="2"
     inkscape:zoom="16.143869"
     inkscape:cx="-1.8218492"
     inkscape:cy="12.263897"
     inkscape:document-units="px"
     inkscape:current-layer="layer1"
     width="128px"
     height="128px"
     inkscape:showpageshadow="false"
     inkscape:window-width="1920"
     inkscape:window-height="1027"
     inkscape:window-x="0"
     inkscape:window-y="25"
     showguides="true"
     inkscape:guide-bbox="true"
     showgrid="true"
     inkscape:window-maximized="1">
    <sodipodi:guide
       id="guide2226"
       position="32.637397,117.99844"
       orientation="horizontal" />
    <sodipodi:guide
       id="guide2230"
       position="110,57.402344"
       orientation="vertical" />
    <sodipodi:guide
       id="guide2232"
       position="33.760911"
       orientation="horizontal" />
    <sodipodi:guide
       id="guide2231"
       position="46.774696"
       orientation="horizontal" />
    <inkscape:grid
       enabled="true"
       visible="true"
       id="grid3231"
       type="xygrid"
       empspacing="8"
       snapvisiblegridlinesonly="true" />
    <sodipodi:guide
       orientation="1,0"
       position="100,67.625"
       id="guide2713" />
  </sodipodi:namedview>
  <defs
     id="defs4">
    <inkscape:perspective
       sodipodi:type="inkscape:persp3d"
       inkscape:vp_x="0 : 11 : 1"
       inkscape:vp_y="0 : 1000 : 0"
       inkscape:vp_z="22 : 11 : 1"
       inkscape:persp3d-origin="11 : 7.3333333 : 1"
       id="perspective19" />
    <linearGradient
       id="StandardGradient"
       gradientTransform="matrix(0.9984539,0,0,0.9984539,-0.0459776,0.05767558)"
       x1="10.710332"
       y1="1.9963325"
       x2="10.710332"
       y2="18.974037"
       gradientUnits="userSpaceOnUse">
      <stop
         style="stop-color:#000000;stop-opacity:0.86274511;"
         offset="0"
         id="stop3277" />
      <stop
         style="stop-color:#000000;stop-opacity:0.47058824;"
         offset="1"
         id="stop3279" />
    </linearGradient>
    <inkscape:perspective
       id="perspective3675"
       inkscape:persp3d-origin="0.5 : 0.33333333 : 1"
       inkscape:vp_z="1 : 0.5 : 1"
       inkscape:vp_y="0 : 1000 : 0"
       inkscape:vp_x="0 : 0.5 : 1"
       sodipodi:type="inkscape:persp3d" />
    <linearGradient
       inkscape:collect="always"
       xlink:href="#StandardGradient"
       id="linearGradient3627"
       gradientUnits="userSpaceOnUse"
       gradientTransform="matrix(0.9984539,0,0,0.9984539,-30.045978,0.05767558)"
       x1="10.710332"
       y1="1.9963325"
       x2="10.710332"
       y2="18.974037" />
    <clipPath
       clipPathUnits="userSpaceOnUse"
       id="clipPath3634">
      <path
         style="fill:#ff00ff;fill-opacity:1;stroke:none"
         d="m -30,0 0,22 22,0 0,-22 -22,0 z m 9,2 c 1.536279,0 3.078693,0.5829855 4.25,1.75 2.042235,2.0347517 2.299759,5.181761 0.78125,7.5 0.01984,0.394051 0.08665,1.024202 0.34375,1.25 0.350063,0.307445 1.153972,-0.120878 1.6875,0.46875 l 3.6875,3.71875 c 0,0 0.750914,0.690483 -0.3125,1.75 -1.063413,1.059517 -1.75,0.3125 -1.75,0.3125 L -16,15.03125 c -0.591796,-0.531572 -0.160173,-1.338719 -0.46875,-1.6875 -0.226629,-0.256157 -0.854501,-0.32398 -1.25,-0.34375 -2.326765,1.512945 -5.489015,1.253503 -7.53125,-0.78125 -2.342612,-2.3340289 -2.342612,-6.134721 0,-8.46875 C -24.078693,2.5829856 -22.536279,2 -21,2 z m 0.03125,2 c -1.104318,1e-7 -2.119541,0.4034447 -2.84375,1.125 -0.724209,0.7215553 -1.15625,1.7434783 -1.15625,2.84375 0,2.200545 1.791365,4.000001 4,4 2.208637,0 4,-1.799455 4,-4 0,-2.2005437 -1.791364,-3.9687501 -4,-3.96875 z"
         id="path3636" />
    </clipPath>
    <linearGradient
       inkscape:collect="always"
       xlink:href="#StandardGradient"
       id="linearGradient3657"
       gradientUnits="userSpaceOnUse"
       x1="9"
       y1="5"
       x2="9"
       y2="17.041595"
       gradientTransform="translate(0,1)" />
    <linearGradient
       inkscape:collect="always"
       xlink:href="#StandardGradient"
       id="linearGradient3659"
       gradientUnits="userSpaceOnUse"
       x1="9"
       y1="5"
       x2="9"
       y2="17.041595" />
    <linearGradient
       inkscape:collect="always"
       xlink:href="#StandardGradient"
       id="linearGradient3664"
       gradientUnits="userSpaceOnUse"
       x1="9"
       y1="5"
       x2="9"
       y2="17.041595"
       gradientTransform="translate(0,1)" />
    <linearGradient
       inkscape:collect="always"
       xlink:href="#StandardGradient"
       id="linearGradient3668"
       gradientUnits="userSpaceOnUse"
       x1="9"
       y1="5"
       x2="9"
       y2="17.041595" />
    <linearGradient
       inkscape:collect="always"
       xlink:href="#StandardGradient"
       id="linearGradient3673"
       gradientUnits="userSpaceOnUse"
       x1="9"
       y1="5"
       x2="9"
       y2="17.041595"
       gradientTransform="translate(-30,0)" />
    <clipPath
       clipPathUnits="userSpaceOnUse"
       id="clipPath3680">
      <path
         style="fill:#ff00ff;fill-opacity:1;stroke:none"
         d="m -30,0 0,22 22,0 0,-22 -22,0 z m 1,5 1,0 8,0 0,3 -1,0 0,-1 -2,0 0,9 1,0 0,1 -1,0 -3,0 -1,0 0,-1 1,0 0,-9 -2,0 0,1 -1,0 0,-1 0,-2 z m 11,0 1,0 8,0 0,3 -1,0 0,-1 -2,0 0,9 1,0 0,1 -5,0 0,-1 1,0 0,-9 -2,0 0,1 -1,0 0,-1 0,-2 z"
         id="path3682" />
    </clipPath>
    <filter
       inkscape:collect="always"
       id="filter3684"
       color-interpolation-filters="sRGB">
      <feGaussianBlur
         inkscape:collect="always"
         stdDeviation="0.48"
         id="feGaussianBlur3686" />
    </filter>
    <linearGradient
       inkscape:collect="always"
       xlink:href="#StandardGradient"
       id="linearGradient3647"
       gradientUnits="userSpaceOnUse"
       x1="10"
       y1="6"
       x2="10"
       y2="14.062258"
       gradientTransform="translate(1,-3)" />
    <linearGradient
       inkscape:collect="always"
       xlink:href="#StandardGradient"
       id="linearGradient3653"
       gradientUnits="userSpaceOnUse"
       x1="10"
       y1="6"
       x2="10"
       y2="14.062258"
       gradientTransform="translate(0,8)" />
    <linearGradient
       inkscape:collect="always"
       xlink:href="#StandardGradient"
       id="linearGradient3655"
       gradientUnits="userSpaceOnUse"
       gradientTransform="translate(5,8)"
       x1="10"
       y1="6"
       x2="10"
       y2="14.062258" />
    <linearGradient
       inkscape:collect="always"
       xlink:href="#StandardGradient"
       id="linearGradient3658"
       gradientUnits="userSpaceOnUse"
       x1="10"
       y1="6"
       x2="10"
       y2="14.062258"
       gradientTransform="translate(0,-3)" />
    <linearGradient
       inkscape:collect="always"
       xlink:href="#StandardGradient"
       id="linearGradient3678"
       gradientUnits="userSpaceOnUse"
       gradientTransform="translate(1,-3)"
       x1="10"
       y1="6"
       x2="10"
       y2="14.062258" />
    <linearGradient
       inkscape:collect="always"
       xlink:href="#StandardGradient"
       id="linearGradient3683"
       gradientUnits="userSpaceOnUse"
       gradientTransform="translate(0,8)"
       x1="10"
       y1="6"
       x2="10"
       y2="14.062258" />
    <linearGradient
       inkscape:collect="always"
       xlink:href="#StandardGradient"
       id="linearGradient3688"
       gradientUnits="userSpaceOnUse"
       gradientTransform="translate(0,-3)"
       x1="10"
       y1="6"
       x2="10"
       y2="14.062258" />
    <linearGradient
       inkscape:collect="always"
       xlink:href="#StandardGradient"
       id="linearGradient3693"
       gradientUnits="userSpaceOnUse"
       gradientTransform="matrix(-1,0,0,1,24,0)"
       x1="10"
       y1="6"
       x2="10"
       y2="14.062258" />
    <linearGradient
       inkscape:collect="always"
       xlink:href="#StandardGradient"
       id="linearGradient3697"
       gradientUnits="userSpaceOnUse"
       gradientTransform="matrix(-1,0,0,1,23,8)"
       x1="10"
       y1="6"
       x2="10"
       y2="14.062258" />
    <linearGradient
       inkscape:collect="always"
       xlink:href="#StandardGradient"
       id="linearGradient3700"
       gradientUnits="userSpaceOnUse"
       gradientTransform="translate(0,8)"
       x1="10"
       y1="6"
       x2="10"
       y2="14.062258" />
    <linearGradient
       inkscape:collect="always"
       xlink:href="#StandardGradient"
       id="linearGradient3705"
       gradientUnits="userSpaceOnUse"
       gradientTransform="translate(5,26)"
       x1="10"
       y1="6"
       x2="10"
       y2="14.062258" />
    <linearGradient
       inkscape:collect="always"
       xlink:href="#StandardGradient"
       id="linearGradient3707"
       gradientUnits="userSpaceOnUse"
       gradientTransform="translate(-2,8)"
       x1="10"
       y1="6"
       x2="10"
       y2="14.062258" />
    <linearGradient
       inkscape:collect="always"
       xlink:href="#StandardGradient"
       id="linearGradient3709"
       gradientUnits="userSpaceOnUse"
       gradientTransform="translate(20,-5)"
       x1="10"
       y1="6"
       x2="10"
       y2="14.062258" />
    <linearGradient
       inkscape:collect="always"
       xlink:href="#StandardGradient"
       id="linearGradient3711"
       gradientUnits="userSpaceOnUse"
       x1="10"
       y1="6"
       x2="10"
       y2="14.062258" />
    <linearGradient
       inkscape:collect="always"
       xlink:href="#StandardGradient"
       id="linearGradient3718"
       gradientUnits="userSpaceOnUse"
       gradientTransform="translate(1,26)"
       x1="10"
       y1="6"
       x2="10"
       y2="14.062258" />
    <linearGradient
       inkscape:collect="always"
       xlink:href="#StandardGradient"
       id="linearGradient3725"
       gradientUnits="userSpaceOnUse"
       x1="10"
       y1="6"
       x2="10"
       y2="14.062258"
       gradientTransform="translate(0,-20)" />
    <linearGradient
       inkscape:collect="always"
       xlink:href="#StandardGradient"
       id="linearGradient3727"
       gradientUnits="userSpaceOnUse"
       gradientTransform="matrix(-1,0,0,1,24,-20)"
       x1="10"
       y1="6"
       x2="10"
       y2="14.062258" />
    <linearGradient
       inkscape:collect="always"
       xlink:href="#StandardGradient"
       id="linearGradient3729"
       gradientUnits="userSpaceOnUse"
       x1="10"
       y1="6"
       x2="10"
       y2="14.062258"
       gradientTransform="translate(0,2)" />
    <linearGradient
       inkscape:collect="always"
       xlink:href="#StandardGradient"
       id="linearGradient3736"
       gradientUnits="userSpaceOnUse"
       gradientTransform="translate(0,1)"
       x1="10"
       y1="6"
       x2="10"
       y2="14.062258" />
    <linearGradient
       inkscape:collect="always"
       xlink:href="#StandardGradient"
       id="linearGradient3738"
       gradientUnits="userSpaceOnUse"
       gradientTransform="translate(0,2)"
       x1="10"
       y1="6"
       x2="10"
       y2="14.062258" />
    <linearGradient
       inkscape:collect="always"
       xlink:href="#StandardGradient"
       id="linearGradient3743"
       gradientUnits="userSpaceOnUse"
       gradientTransform="translate(0,3)"
       x1="10"
       y1="6"
       x2="10"
       y2="14.062258" />
    <linearGradient
       inkscape:collect="always"
       xlink:href="#StandardGradient"
       id="linearGradient3747"
       gradientUnits="userSpaceOnUse"
       x1="10"
       y1="6"
       x2="10"
       y2="14.062258" />
    <linearGradient
       inkscape:collect="always"
       xlink:href="#StandardGradient"
       id="linearGradient3752"
       gradientUnits="userSpaceOnUse"
       x1="10"
       y1="6"
       x2="10"
       y2="14.062258" />
    <linearGradient
       inkscape:collect="always"
       xlink:href="#StandardGradient"
       id="linearGradient3756"
       gradientUnits="userSpaceOnUse"
       gradientTransform="translate(-31,0)"
       x1="10"
       y1="6"
       x2="10"
       y2="14.062258" />
    <linearGradient
       inkscape:collect="always"
       xlink:href="#StandardGradient"
       id="linearGradient3762"
       gradientUnits="userSpaceOnUse"
       gradientTransform="translate(-30,0)"
       x1="10"
       y1="6"
       x2="10"
       y2="14.062258" />
    <clipPath
       clipPathUnits="userSpaceOnUse"
       id="clipPath3769">
      <path
         style="fill:#ff00ff;fill-opacity:1;stroke:none"
         d="m -30,-2 0,24 24,0 0,-24 -24,0 z m 10,8 2,0 2,0 0,1 1,0 1.5,0 c 0.831,0 1.5,0.669 1.5,1.5 l 0,0.5 4,0 0,2 -4,0 0,0.5 c 0,0.831 -0.669,1.5 -1.5,1.5 l -1.5,0 -1,0 0,1 -2,0 -2,0 0,-1 -1,0 -1.5,0 c -0.831,0 -1.5,-0.669 -1.5,-1.5 l 0,-0.5 -4,0 0,-2 4,0 0,-0.5 C -24,7.669 -23.331,7 -22.5,7 l 1.5,0 1,0 0,-1 z"
         id="path3771" />
    </clipPath>
    <filter
       inkscape:collect="always"
       id="filter3773"
       x="-0.0504"
       width="1.1008"
       y="-0.126"
       height="1.252">
      <feGaussianBlur
         inkscape:collect="always"
         stdDeviation="0.42"
         id="feGaussianBlur3775" />
    </filter>
    <inkscape:perspective
       id="perspective2907"
       inkscape:persp3d-origin="0.5 : 0.33333333 : 1"
       inkscape:vp_z="1 : 0.5 : 1"
       inkscape:vp_y="0 : 1000 : 0"
       inkscape:vp_x="0 : 0.5 : 1"
       sodipodi:type="inkscape:persp3d" />
    <linearGradient
       inkscape:collect="always"
       xlink:href="#StandardGradient-3"
       id="linearGradient2897"
       gradientUnits="userSpaceOnUse"
       x1="10"
       y1="6"
       x2="10"
       y2="14.062258" />
    <linearGradient
       id="StandardGradient-3"
       gradientTransform="matrix(0.9984539,0,0,0.9984539,-0.0459776,0.05767558)"
       x1="10.710332"
       y1="1.9963325"
       x2="10.710332"
       y2="18.974037"
       gradientUnits="userSpaceOnUse">
      <stop
         style="stop-color:#000000;stop-opacity:0.86274511;"
         offset="0"
         id="stop3277-9" />
      <stop
         style="stop-color:#000000;stop-opacity:0.47058824;"
         offset="1"
         id="stop3279-1" />
    </linearGradient>
    <linearGradient
       inkscape:collect="always"
       xlink:href="#StandardGradient-3"
       id="linearGradient2889"
       gradientUnits="userSpaceOnUse"
       gradientTransform="matrix(-1,0,0,1,25,-11)"
       x1="10"
       y1="6"
       x2="10"
       y2="14.062258" />
    <linearGradient
       id="linearGradient2916"
       gradientTransform="matrix(0.9984539,0,0,0.9984539,-0.0459776,0.05767558)"
       x1="10.710332"
       y1="1.9963325"
       x2="10.710332"
       y2="18.974037"
       gradientUnits="userSpaceOnUse">
      <stop
         style="stop-color:#000000;stop-opacity:0.86274511;"
         offset="0"
         id="stop2918" />
      <stop
         style="stop-color:#000000;stop-opacity:0.47058824;"
         offset="1"
         id="stop2920" />
    </linearGradient>
    <linearGradient
       y2="14.062258"
       x2="10"
       y1="6"
       x1="10"
       gradientTransform="matrix(-1,0,0,1,25,0)"
       gradientUnits="userSpaceOnUse"
       id="linearGradient2924"
       xlink:href="#StandardGradient-3"
       inkscape:collect="always" />
    <linearGradient
       inkscape:collect="always"
       xlink:href="#StandardGradient-3"
       id="linearGradient3814"
       gradientUnits="userSpaceOnUse"
       gradientTransform="matrix(-1,0,0,1,25,1)"
       x1="10"
       y1="6"
       x2="10"
       y2="14.062258" />
    <linearGradient
       inkscape:collect="always"
       xlink:href="#StandardGradient-3"
       id="linearGradient3816"
       gradientUnits="userSpaceOnUse"
       x1="10"
       y1="6"
       x2="10"
       y2="14.062258"
       gradientTransform="translate(0,1)" />
    <linearGradient
       inkscape:collect="always"
       xlink:href="#StandardGradient-3"
       id="linearGradient3818"
       gradientUnits="userSpaceOnUse"
       gradientTransform="matrix(-1,0,0,1,25,2)"
       x1="10"
       y1="6"
       x2="10"
       y2="14.062258" />
    <linearGradient
       inkscape:collect="always"
       xlink:href="#StandardGradient-3"
       id="linearGradient3825"
       gradientUnits="userSpaceOnUse"
       gradientTransform="matrix(-1,0,0,1,25,1)"
       x1="10"
       y1="6"
       x2="10"
       y2="14.062258" />
    <linearGradient
       inkscape:collect="always"
       xlink:href="#StandardGradient-3"
       id="linearGradient3827"
       gradientUnits="userSpaceOnUse"
       gradientTransform="matrix(-1,0,0,1,25,2)"
       x1="10"
       y1="6"
       x2="10"
       y2="14.062258" />
    <linearGradient
       inkscape:collect="always"
       xlink:href="#StandardGradient-3"
       id="linearGradient3832"
       gradientUnits="userSpaceOnUse"
       gradientTransform="matrix(-1,0,0,1,25,3)"
       x1="10"
       y1="6"
       x2="10"
       y2="14.062258" />
    <linearGradient
       inkscape:collect="always"
       xlink:href="#StandardGradient-3"
       id="linearGradient3836"
       gradientUnits="userSpaceOnUse"
       gradientTransform="matrix(-1,0,0,1,25,0)"
       x1="10"
       y1="6"
       x2="10"
       y2="14.062258" />
    <linearGradient
       inkscape:collect="always"
       xlink:href="#StandardGradient-3"
       id="linearGradient3841"
       gradientUnits="userSpaceOnUse"
       gradientTransform="matrix(-1,0,0,1,-5,0)"
       x1="10"
       y1="6"
       x2="10"
       y2="14.062258" />
    <clipPath
       clipPathUnits="userSpaceOnUse"
       id="clipPath3850">
      <path
         style="fill:#ff00ff;fill-opacity:1;stroke:none"
         d="m -30,-2 0,24 24,0 0,-24 -24,0 z m 8.5,9 3.5,0 0,6 -3.5,0 c -0.831,0 -1.5,-0.669 -1.5,-1.5 l 0,-0.5 -4,0 0,-2 4,0 0,-0.5 C -23,7.669 -22.331,7 -21.5,7 z m 4.5,0 3.5,0 c 0.831,0 1.5,0.669 1.5,1.5 l 0,0.5 4,0 0,2 -4,0 0,0.5 c 0,0.831 -0.669,1.5 -1.5,1.5 l -3.5,0 0,-6 z"
         id="path3852" />
    </clipPath>
    <filter
       inkscape:collect="always"
       id="filter3854"
       x="-0.047368421"
       width="1.0947368"
       y="-0.15"
       height="1.3">
      <feGaussianBlur
         inkscape:collect="always"
         stdDeviation="0.375"
         id="feGaussianBlur3856" />
    </filter>
  </defs>
  <metadata
     id="metadata7">
    <rdf:RDF>
      <cc:Work
         rdf:about="">
        <dc:format>image/svg+xml</dc:format>
        <dc:type
           rdf:resource="http://purl.org/dc/dcmitype/StillImage" />
      </cc:Work>
    </rdf:RDF>
  </metadata>
  <g
     style="display:inline"
     inkscape:label="Calque 1"
     id="layer1"
     inkscape:groupmode="layer"
     transform="translate(0,2)">
    <path
       id="path3839"
       d="M -21.5,7 C -22.331,7 -23,7.669 -23,8.5 l 0,0.5 -4,0 0,2 4,0 0,0.5 c 0,0.831 0.669,1.5 1.5,1.5 l 3.5,0 0,-6 -3.5,0 z m 4.5,0 0,6 3.5,0 c 0.831,0 1.5,-0.669 1.5,-1.5 l 0,-0.5 4,0 0,-2 -4,0 0,-0.5 C -12,7.669 -12.669,7 -13.5,7 L -17,7 z"
       style="opacity:0.3;fill:none;stroke:#ffffff;display:inline;filter:url(#filter3854)"
       clip-path="url(#clipPath3850)"
       transform="translate(30,0)" />
    <rect
       style="fill:#000000;fill-opacity:1;stroke:none;display:inline"
       id="rect2824"
       width="5"
       height="5"
       x="28"
       y="1" />
    <text
       xml:space="preserve"
       style="font-size:2px;font-style:normal;font-variant:normal;font-weight:normal;font-stretch:normal;text-align:start;line-height:125%;writing-mode:lr-tb;text-anchor:start;fill:#000000;fill-opacity:1;stroke:none;display:inline;font-family:Liberation Sans;-inkscape-font-specification:Liberation Sans"
       x="34"
       y="4"
       id="text3598"
       sodipodi:linespacing="125%"><tspan
         sodipodi:role="line"
         id="tspan3600"
         x="34"
         y="4">Opacity : 50%</tspan></text>
    <rect
       y="9"
       x="28"
       height="5"
       width="5"
       id="rect3602"
       style="fill:#ffffff;fill-opacity:1;stroke:#000000;stroke-width:0.1;stroke-miterlimit:4;stroke-dasharray:none;display:inline" />
    <text
       sodipodi:linespacing="125%"
       id="text3604"
       y="12"
       x="34"
       style="font-size:2px;font-style:normal;font-variant:normal;font-weight:normal;font-stretch:normal;text-align:start;line-height:125%;writing-mode:lr-tb;text-anchor:start;fill:#000000;fill-opacity:1;stroke:none;display:inline;font-family:Liberation Sans;-inkscape-font-specification:Liberation Sans"
       xml:space="preserve"><tspan
         y="12"
         x="34"
         id="tspan3606"
         sodipodi:role="line">Opacity : 30%</tspan></text>
    <rect
       style="fill:#ffffff;fill-opacity:1;stroke:#000000;stroke-width:0.1;stroke-miterlimit:4;stroke-dasharray:none;display:inline"
       id="rect3608"
       width="5"
       height="5"
       x="28"
       y="17" />
    <text
       xml:space="preserve"
       style="font-size:2px;font-style:normal;font-variant:normal;font-weight:normal;font-stretch:normal;text-align:start;line-height:125%;writing-mode:lr-tb;text-anchor:start;fill:#000000;fill-opacity:1;stroke:none;display:inline;font-family:Liberation Sans;-inkscape-font-specification:Liberation Sans"
       x="34"
       y="19"
       id="text3610"
       sodipodi:linespacing="125%"><tspan
         sodipodi:role="line"
         x="34"
         y="19"
         id="tspan3648">Glow : 6</tspan><tspan
         sodipodi:role="line"
         x="34"
         y="21.5"
         id="tspan3641">Opacity : 30%</tspan></text>
    <rect
       style="fill:#ff00ff;fill-opacity:1;stroke:none"
       id="rect2851"
       width="24"
       height="24"
       x="-30"
       y="-2" />
    <path
       style="fill:url(#linearGradient3709);fill-opacity:1;stroke:none"
       d="m 31,2 0,2 2,0 0,-2 -2,0 z m 0,4 0,2 2,0 0,-2 -2,0 z"
       id="path3645" />
    <path
       style="fill:url(#linearGradient3718);fill-opacity:1;stroke:none"
       d="m 10,32 0,1 -1,0 -1.5,0 C 6.669,33 6,33.669 6,34.5 l 0,0.5 -5,0 0,2 5,0 0,0.5 C 6,38.331 6.669,39 7.5,39 l 1.5,0 1,0 0,1 2,0 0,-2 3.5,0 C 15.777,38 16,37.777 16,37.5 16,37.223 15.777,37 15.5,37 l -3.5,0 0,-2 3.5,0 C 15.777,35 16,34.777 16,34.5 16,34.223 15.777,34 15.5,34 l -3.5,0 0,-2 -2,0 z"
       id="path3649"
       sodipodi:nodetypes="cccccccccccccccccsccccscccc" />
    <path
       id="path3703"
       d="m 17,32 0,2.5 0,3 0,2.5 2,0 0,-1 1,0 1.5,0 c 0.831,0 1.5,-0.669 1.5,-1.5 l 0,-0.5 0,-2 0,-0.5 C 23,33.669 22.331,33 21.5,33 l -1.5,0 -1,0 0,-1 -2,0 z"
       style="fill:url(#linearGradient3705);fill-opacity:1;stroke:none"
       sodipodi:nodetypes="ccccccccccccccccc" />
    <path
       sodipodi:nodetypes="ccccccccccccccccccc"
       id="path3721"
       d="m 12,-14 0,2.5 0,3 0,2.5 2,0 0,-1 1,0 1.5,0 c 0.831,0 1.5,-0.669 1.5,-1.5 l 0,-0.5 4,0 0,-2 -4,0 0,-0.5 c 0,-0.831 -0.669,-1.5 -1.5,-1.5 l -1.5,0 -1,0 0,-1 -2,0 z"
       style="fill:url(#linearGradient3725);fill-opacity:1;stroke:none" />
    <path
       sodipodi:nodetypes="ccccccccccccccccccc"
       style="fill:url(#linearGradient3727);fill-opacity:1;stroke:none"
       d="m 12,-14 0,2.5 0,3 0,2.5 -2,0 0,-1 -1,0 -1.5,0 C 6.669,-7 6,-7.669 6,-8.5 l 0,-0.5 -4,0 0,-2 4,0 0,-0.5 C 6,-12.331 6.669,-13 7.5,-13 l 1.5,0 1,0 0,-1 2,0 z"
       id="path3723" />
    <path
       style="fill:url(#linearGradient3818);fill-opacity:1;stroke:none;display:inline"
       d="M 8.5 9 C 7.669 9 7 9.669 7 10.5 L 7 11 L 3 11 L 3 13 L 7 13 L 7 13.5 C 7 14.331 7.669 15 8.5 15 L 12 15 L 12 9 L 8.5 9 z M 13 9 L 13 15 L 16.5 15 C 17.331 15 18 14.331 18 13.5 L 18 13 L 22 13 L 22 11 L 18 11 L 18 10.5 C 18 9.669 17.331 9 16.5 9 L 13 9 z "
       transform="translate(0,-2)"
       id="path2885" />
    <path
       style="fill:#000000;fill-opacity:1;stroke:none;display:inline;opacity:0.5"
       d="M 8.5 9 C 7.669 9 7 9.669 7 10.5 L 7 11 L 3 11 L 3 12 L 7 12 L 7 11.5 C 7 10.669 7.669 10 8.5 10 L 12 10 L 12 9 L 8.5 9 z M 13 9 L 13 10 L 16.5 10 C 17.331 10 18 10.669 18 11.5 L 18 12 L 22 12 L 22 11 L 18 11 L 18 10.5 C 18 9.669 17.331 9 16.5 9 L 13 9 z "
       transform="translate(0,-2)"
       id="path3821" />
    <path
       style="fill:#ffffff;fill-opacity:1;stroke:none;display:inline;opacity:0.3"
       d="M 3 13 L 3 14 L 7 14 L 7 14.5 C 7 15.331 7.669 16 8.5 16 L 12 16 L 12 15 L 8.5 15 C 7.669 15 7 14.331 7 13.5 L 7 13 L 3 13 z M 18 13 L 18 13.5 C 18 14.331 17.331 15 16.5 15 L 13 15 L 13 16 L 16.5 16 C 17.331 16 18 15.331 18 14.5 L 18 14 L 22 14 L 22 13 L 18 13 z "
       transform="translate(0,-2)"
       id="path3830" />
  </g>
</svg>
